<svg xmlns="http://www.w3.org/2000/svg" viewBox="0 0 3288 2488" role="img" aria-labelledby="t"><title id="t">Hecaton</title>
  <path fill="#7AA2F7" fill-rule="evenodd" d="M809.5,0.5C809.5,0.5 1037.5,0.5 1037.5,0.5C1037.5,0.5 1040.5,7.5 1040.5,7.5C1040.5,7.5 1048.7,6.3 1055.5,9.5C1062.3,12.7 1073.7,19.5 1081.5,26.5C1089.3,33.5 1097.7,44.5 1102.5,51.5C1107.3,58.5 1109.0,38.5 1110.5,68.5C1112.0,98.5 1114.2,198.2 1111.5,231.5C1108.8,264.8 1102.8,256.8 1094.5,268.5C1086.2,280.2 1070.2,294.7 1061.5,301.5C1052.8,308.3 1053.2,306.7 1042.5,309.5C1031.8,312.3 1025.5,317.3 997.5,318.5C969.5,319.7 897.8,316.2 874.5,316.5C851.2,316.8 862.0,318.2 857.5,320.5C853.0,322.8 852.0,324.2 847.5,330.5C843.0,336.8 833.2,332.0 830.5,358.5C827.8,385.0 832.7,465.0 831.5,489.5C830.3,514.0 825.0,500.3 823.5,505.5C822.0,510.7 825.5,512.0 822.5,520.5C819.5,529.0 812.0,545.3 805.5,556.5C799.0,567.7 794.0,575.3 783.5,587.5C773.0,599.7 753.0,620.0 742.5,629.5C732.0,639.0 720.5,644.5 720.5,644.5C720.5,644.5 720.5,653.5 720.5,653.5C720.5,653.5 744.7,662.7 753.5,664.5C762.3,666.3 767.3,663.2 773.5,664.5C779.7,665.8 783.7,671.0 790.5,672.5C797.3,674.0 807.2,672.0 814.5,673.5C821.8,675.0 827.5,680.2 834.5,681.5C841.5,682.8 850.8,680.2 856.5,681.5C862.2,682.8 863.7,688.2 868.5,689.5C873.3,690.8 881.0,688.3 885.5,689.5C890.0,690.7 887.7,693.8 895.5,696.5C903.3,699.2 925.2,702.8 932.5,705.5C939.8,708.2 933.3,709.8 939.5,712.5C945.7,715.2 956.2,715.8 969.5,721.5C982.8,727.2 988.3,727.7 1019.5,746.5C1050.7,765.3 1096.7,791.2 1156.5,834.5C1216.3,877.8 1332.0,972.2 1378.5,1006.5C1425.0,1040.8 1416.5,1030.8 1435.5,1040.5C1454.5,1050.2 1480.7,1060.3 1492.5,1064.5C1504.3,1068.7 1502.0,1064.0 1506.5,1065.5C1511.0,1067.0 1514.7,1072.2 1519.5,1073.5C1524.3,1074.8 1530.3,1072.2 1535.5,1073.5C1540.7,1074.8 1543.2,1080.2 1550.5,1081.5C1557.8,1082.8 1571.8,1080.3 1579.5,1081.5C1587.2,1082.7 1577.7,1087.3 1596.5,1088.5C1615.3,1089.7 1673.7,1089.7 1692.5,1088.5C1711.3,1087.3 1702.0,1082.8 1709.5,1081.5C1717.0,1080.2 1730.8,1081.8 1737.5,1080.5C1744.2,1079.2 1740.8,1076.2 1749.5,1073.5C1758.2,1070.8 1781.3,1067.2 1789.5,1064.5C1797.7,1061.8 1794.8,1058.8 1798.5,1057.5C1802.2,1056.2 1794.5,1064.8 1811.5,1056.5C1828.5,1048.2 1871.3,1027.3 1900.5,1007.5C1929.7,987.7 1969.2,950.7 1986.5,937.5C2003.8,924.3 1990.8,938.2 2004.5,928.5C2018.2,918.8 2054.0,891.3 2068.5,879.5C2083.0,867.7 2074.3,870.3 2091.5,857.5C2108.7,844.7 2156.7,812.0 2171.5,802.5C2186.3,793.0 2176.5,803.2 2180.5,800.5C2184.5,797.8 2178.7,797.0 2195.5,786.5C2212.3,776.0 2255.2,751.0 2281.5,737.5C2307.8,724.0 2335.0,712.3 2353.5,705.5C2372.0,698.7 2384.2,699.2 2392.5,696.5C2400.8,693.8 2392.8,692.2 2403.5,689.5C2414.2,686.8 2445.7,683.2 2456.5,680.5C2467.3,677.8 2461.7,674.8 2468.5,673.5C2475.3,672.2 2489.8,674.0 2497.5,672.5C2505.2,671.0 2507.8,665.8 2514.5,664.5C2521.2,663.2 2528.3,666.3 2537.5,664.5C2546.7,662.7 2569.5,653.5 2569.5,653.5C2569.5,653.5 2568.5,642.5 2568.5,642.5C2568.5,642.5 2514.5,595.2 2497.5,572.5C2480.5,549.8 2472.2,540.8 2466.5,506.5C2460.8,472.2 2466.5,395.7 2463.5,366.5C2460.5,337.3 2454.0,339.5 2448.5,331.5C2443.0,323.5 2459.0,320.8 2430.5,318.5C2402.0,316.2 2307.7,318.8 2277.5,317.5C2247.3,316.2 2259.0,314.2 2249.5,310.5C2240.0,306.8 2229.8,302.5 2220.5,295.5C2211.2,288.5 2199.3,275.7 2193.5,268.5C2187.7,261.3 2188.3,261.3 2185.5,252.5C2182.7,243.7 2177.8,244.5 2176.5,215.5C2175.2,186.5 2173.2,108.8 2177.5,78.5C2181.8,48.2 2195.3,43.5 2202.5,33.5C2209.7,23.5 2212.5,22.8 2220.5,18.5C2228.5,14.2 2250.5,7.5 2250.5,7.5C2250.5,7.5 2254.5,0.5 2254.5,0.5C2254.5,0.5 2477.5,0.5 2477.5,0.5C2477.5,0.5 2483.5,7.5 2483.5,7.5C2483.5,7.5 2501.3,8.0 2506.5,9.5C2511.7,11.0 2511.5,15.2 2514.5,16.5C2517.5,17.8 2516.5,13.3 2524.5,17.5C2532.5,21.7 2532.8,10.5 2562.5,41.5C2592.2,72.5 2677.7,173.5 2702.5,203.5C2727.3,233.5 2699.7,206.8 2711.5,221.5C2723.3,236.2 2756.3,270.5 2773.5,291.5C2790.7,312.5 2802.7,333.2 2814.5,347.5C2826.3,361.8 2834.0,362.5 2844.5,377.5C2855.0,392.5 2869.0,415.3 2877.5,437.5C2886.0,459.7 2892.7,484.3 2895.5,510.5C2898.3,536.7 2897.3,569.2 2894.5,594.5C2891.7,619.8 2885.5,640.7 2878.5,662.5C2871.5,684.3 2867.0,700.7 2852.5,725.5C2838.0,750.3 2834.5,764.3 2791.5,811.5C2748.5,858.7 2639.0,967.0 2594.5,1008.5C2550.0,1050.0 2549.5,1044.8 2524.5,1060.5C2499.5,1076.2 2468.5,1091.5 2444.5,1102.5C2420.5,1113.5 2394.2,1122.3 2380.5,1126.5C2366.8,1130.7 2367.0,1126.2 2362.5,1127.5C2358.0,1128.8 2358.2,1133.3 2353.5,1134.5C2348.8,1135.7 2339.8,1133.2 2334.5,1134.5C2329.2,1135.8 2327.5,1141.0 2321.5,1142.5C2315.5,1144.0 2304.0,1142.2 2298.5,1143.5C2293.0,1144.8 2297.7,1147.8 2288.5,1150.5C2279.3,1153.2 2252.5,1156.8 2243.5,1159.5C2234.5,1162.2 2244.3,1162.5 2234.5,1166.5C2224.7,1170.5 2203.3,1175.2 2184.5,1183.5C2165.7,1191.8 2144.8,1200.3 2121.5,1216.5C2098.2,1232.7 2065.8,1260.2 2044.5,1280.5C2023.2,1300.8 2006.3,1322.2 1993.5,1338.5C1980.7,1354.8 1977.2,1360.7 1967.5,1378.5C1957.8,1396.3 1941.0,1432.0 1935.5,1445.5C1930.0,1459.0 1935.8,1455.8 1934.5,1459.5C1933.2,1463.2 1928.8,1463.5 1927.5,1467.5C1926.2,1471.5 1927.8,1479.2 1926.5,1483.5C1925.2,1487.8 1920.8,1489.0 1919.5,1493.5C1918.2,1498.0 1919.8,1505.2 1918.5,1510.5C1917.2,1515.8 1912.8,1516.3 1911.5,1525.5C1910.2,1534.7 1911.7,1554.2 1910.5,1565.5C1909.3,1576.8 1905.3,1526.7 1904.5,1593.5C1903.7,1660.3 1904.3,1891.8 1905.5,1966.5C1906.7,2041.2 1905.7,2022.3 1911.5,2041.5C1917.3,2060.7 1927.8,2069.7 1940.5,2081.5C1953.2,2093.3 1967.3,2096.0 1987.5,2112.5C2007.7,2129.0 2041.0,2160.0 2061.5,2180.5C2082.0,2201.0 2097.0,2218.3 2110.5,2235.5C2124.0,2252.7 2130.7,2263.3 2142.5,2283.5C2154.3,2303.7 2172.2,2336.2 2181.5,2356.5C2190.8,2376.8 2195.7,2390.8 2198.5,2405.5C2201.3,2420.2 2201.0,2434.0 2198.5,2444.5C2196.0,2455.0 2189.0,2461.3 2183.5,2468.5C2178.0,2475.7 2165.5,2487.5 2165.5,2487.5C2165.5,2487.5 1117.5,2487.5 1117.5,2487.5C1117.5,2487.5 1096.0,2468.7 1090.5,2457.5C1085.0,2446.3 1083.3,2435.5 1084.5,2420.5C1085.7,2405.5 1090.0,2387.5 1097.5,2367.5C1105.0,2347.5 1116.3,2323.7 1129.5,2300.5C1142.7,2277.3 1160.3,2249.5 1176.5,2228.5C1192.7,2207.5 1207.2,2193.7 1226.5,2174.5C1245.8,2155.3 1274.5,2128.0 1292.5,2113.5C1310.5,2099.0 1323.2,2096.3 1334.5,2087.5C1345.8,2078.7 1353.7,2072.0 1360.5,2060.5C1367.3,2049.0 1373.0,2097.2 1375.5,2018.5C1378.0,1939.8 1376.5,1662.8 1375.5,1588.5C1374.5,1514.2 1370.5,1582.0 1369.5,1572.5C1368.5,1563.0 1370.8,1541.2 1369.5,1531.5C1368.2,1521.8 1363.0,1521.5 1361.5,1514.5C1360.0,1507.5 1364.5,1505.0 1360.5,1489.5C1356.5,1474.0 1342.7,1434.3 1337.5,1421.5C1332.3,1408.7 1333.7,1420.8 1329.5,1412.5C1325.3,1404.2 1320.8,1386.5 1312.5,1371.5C1304.2,1356.5 1296.0,1341.8 1279.5,1322.5C1263.0,1303.2 1231.3,1271.8 1213.5,1255.5C1195.7,1239.2 1186.0,1233.8 1172.5,1224.5C1159.0,1215.2 1151.0,1209.0 1132.5,1199.5C1114.0,1190.0 1079.5,1174.3 1061.5,1167.5C1043.5,1160.7 1032.3,1161.2 1024.5,1158.5C1016.7,1155.8 1019.5,1152.8 1014.5,1151.5C1009.5,1150.2 999.3,1151.8 994.5,1150.5C989.7,1149.2 990.8,1144.8 985.5,1143.5C980.2,1142.2 968.0,1143.8 962.5,1142.5C957.0,1141.2 957.0,1136.8 952.5,1135.5C948.0,1134.2 940.0,1135.8 935.5,1134.5C931.0,1133.2 929.7,1128.8 925.5,1127.5C921.3,1126.2 914.5,1127.8 910.5,1126.5C906.5,1125.2 905.5,1120.8 901.5,1119.5C897.5,1118.2 890.5,1119.8 886.5,1118.5C882.5,1117.2 884.7,1114.2 877.5,1111.5C870.3,1108.8 859.7,1109.3 843.5,1102.5C827.3,1095.7 804.5,1085.3 780.5,1070.5C756.5,1055.7 742.7,1052.5 699.5,1013.5C656.3,974.5 555.3,871.7 521.5,836.5C487.7,801.3 504.7,812.0 496.5,802.5C488.3,793.0 484.3,796.5 472.5,779.5C460.7,762.5 437.3,724.2 425.5,700.5C413.7,676.8 405.7,652.3 401.5,637.5C397.3,622.7 401.8,618.5 400.5,611.5C399.2,604.5 394.7,614.7 393.5,595.5C392.3,576.3 392.3,515.0 393.5,496.5C394.7,478.0 399.2,490.3 400.5,484.5C401.8,478.7 400.2,466.8 401.5,461.5C402.8,456.2 407.2,456.7 408.5,452.5C409.8,448.3 404.0,448.8 409.5,436.5C415.0,424.2 431.2,393.2 441.5,378.5C451.8,363.8 446.0,379.2 471.5,348.5C497.0,317.8 569.0,225.2 594.5,194.5C620.0,163.8 604.7,187.7 624.5,164.5C644.3,141.3 692.8,78.5 713.5,55.5C734.2,32.5 736.7,34.2 748.5,26.5C760.3,18.8 775.5,12.5 784.5,9.5C793.5,6.5 802.5,8.5 802.5,8.5C802.5,8.5 809.5,1.5 809.5,1.5C809.5,1.5 809.5,0.5 809.5,0.5ZM1657.5,288.5C1657.5,288.5 1677.3,288.0 1684.5,289.5C1691.7,291.0 1693.3,296.2 1700.5,297.5C1707.7,298.8 1720.8,296.2 1727.5,297.5C1734.2,298.8 1736.2,304.2 1740.5,305.5C1744.8,306.8 1744.8,302.7 1753.5,305.5C1762.2,308.3 1777.5,314.5 1792.5,322.5C1807.5,330.5 1822.7,336.0 1843.5,353.5C1864.3,371.0 1898.3,401.7 1917.5,427.5C1936.7,453.3 1951.5,492.5 1958.5,508.5C1965.5,524.5 1958.2,519.2 1959.5,523.5C1960.8,527.8 1965.2,529.0 1966.5,534.5C1967.8,540.0 1966.2,550.5 1967.5,556.5C1968.8,562.5 1973.3,550.2 1974.5,570.5C1975.7,590.8 1975.7,658.3 1974.5,678.5C1973.3,698.7 1968.8,685.5 1967.5,691.5C1966.2,697.5 1967.8,709.2 1966.5,714.5C1965.2,719.8 1960.8,719.7 1959.5,723.5C1958.2,727.3 1962.7,726.5 1958.5,737.5C1954.3,748.5 1942.7,774.0 1934.5,789.5C1926.3,805.0 1917.8,819.2 1909.5,830.5C1901.2,841.8 1896.7,845.7 1884.5,857.5C1872.3,869.3 1857.2,887.3 1836.5,901.5C1815.8,915.7 1783.8,932.8 1760.5,942.5C1737.2,952.2 1725.8,956.8 1696.5,959.5C1667.2,962.2 1617.0,963.8 1584.5,958.5C1552.0,953.2 1521.0,935.7 1501.5,927.5C1482.0,919.3 1478.5,916.7 1467.5,909.5C1456.5,902.3 1446.5,894.3 1435.5,884.5C1424.5,874.7 1411.0,861.3 1401.5,850.5C1392.0,839.7 1387.7,834.0 1378.5,819.5C1369.3,805.0 1356.0,786.7 1346.5,763.5C1337.0,740.3 1325.7,713.0 1321.5,680.5C1317.3,648.0 1317.5,600.7 1321.5,568.5C1325.5,536.3 1336.0,510.8 1345.5,487.5C1355.0,464.2 1360.7,451.0 1378.5,428.5C1396.3,406.0 1432.0,370.0 1452.5,352.5C1473.0,335.0 1488.0,330.2 1501.5,323.5C1515.0,316.8 1526.8,315.5 1533.5,312.5C1540.2,309.5 1537.3,306.8 1541.5,305.5C1545.7,304.2 1554.2,305.8 1558.5,304.5C1562.8,303.2 1560.3,298.8 1567.5,297.5C1574.7,296.2 1593.0,297.8 1601.5,296.5C1610.0,295.2 1609.3,290.7 1618.5,289.5C1627.7,288.3 1656.5,289.5 1656.5,289.5C1656.5,289.5 1657.5,288.5 1657.5,288.5Z"/>
  <path fill="#5BD6BA" fill-rule="evenodd" d="M123.5,832.5C123.5,832.5 285.8,830.7 324.5,833.5C363.2,836.3 349.0,845.3 355.5,849.5C362.0,853.7 359.0,851.7 363.5,858.5C368.0,865.3 378.8,880.5 382.5,890.5C386.2,900.5 385.5,888.8 385.5,918.5C385.5,948.2 382.5,1068.5 382.5,1068.5C382.5,1068.5 377.0,1072.5 375.5,1075.5C374.0,1078.5 376.8,1081.8 373.5,1086.5C370.2,1091.2 364.5,1097.5 355.5,1103.5C346.5,1109.5 319.5,1122.5 319.5,1122.5C319.5,1122.5 319.5,1132.5 319.5,1132.5C319.5,1132.5 419.5,1185.8 451.5,1208.5C483.5,1231.2 496.3,1248.5 511.5,1268.5C526.7,1288.5 534.7,1311.5 542.5,1328.5C550.3,1345.5 555.7,1361.2 558.5,1370.5C561.3,1379.8 558.3,1381.0 559.5,1384.5C560.7,1388.0 565.5,1391.5 565.5,1391.5C565.5,1391.5 576.5,1390.5 576.5,1390.5C576.5,1390.5 589.3,1372.0 604.5,1360.5C619.7,1349.0 644.8,1332.0 667.5,1321.5C690.2,1311.0 721.5,1302.3 740.5,1297.5C759.5,1292.7 742.2,1293.3 781.5,1292.5C820.8,1291.7 942.2,1291.7 976.5,1292.5C1010.8,1293.3 981.5,1296.7 987.5,1297.5C993.5,1298.3 1006.8,1296.3 1012.5,1297.5C1018.2,1298.7 1013.7,1301.7 1021.5,1304.5C1029.3,1307.3 1046.3,1309.0 1059.5,1314.5C1072.7,1320.0 1089.8,1331.2 1100.5,1337.5C1111.2,1343.8 1114.0,1344.5 1123.5,1352.5C1133.0,1360.5 1147.5,1375.5 1157.5,1385.5C1167.5,1395.5 1174.2,1400.5 1183.5,1412.5C1192.8,1424.5 1208.3,1448.2 1213.5,1457.5C1218.7,1466.8 1214.5,1468.5 1214.5,1468.5C1214.5,1468.5 1222.5,1474.5 1222.5,1474.5C1222.5,1474.5 1221.2,1482.8 1222.5,1486.5C1223.8,1490.2 1229.2,1492.8 1230.5,1496.5C1231.8,1500.2 1229.2,1504.3 1230.5,1508.5C1231.8,1512.7 1237.0,1516.5 1238.5,1521.5C1240.0,1526.5 1238.2,1533.3 1239.5,1538.5C1240.8,1543.7 1245.2,1545.7 1246.5,1552.5C1247.8,1559.3 1246.3,1572.0 1247.5,1579.5C1248.7,1587.0 1252.7,1542.0 1253.5,1597.5C1254.3,1653.0 1253.7,1854.2 1252.5,1912.5C1251.3,1970.8 1250.2,1936.2 1246.5,1947.5C1242.8,1958.8 1240.2,1968.2 1230.5,1980.5C1220.8,1992.8 1198.3,2013.2 1188.5,2021.5C1178.7,2029.8 1182.3,2020.8 1171.5,2030.5C1160.7,2040.2 1138.0,2066.3 1123.5,2079.5C1109.0,2092.7 1099.3,2096.2 1084.5,2109.5C1069.7,2122.8 1048.3,2147.2 1034.5,2159.5C1020.7,2171.8 1013.0,2173.2 1001.5,2183.5C990.0,2193.8 978.2,2210.0 965.5,2221.5C952.8,2233.0 937.5,2241.7 925.5,2252.5C913.5,2263.3 903.2,2278.0 893.5,2286.5C883.8,2295.0 878.5,2294.0 867.5,2303.5C856.5,2313.0 839.5,2333.0 827.5,2343.5C815.5,2354.0 805.8,2357.5 795.5,2366.5C785.2,2375.5 774.0,2390.3 765.5,2397.5C757.0,2404.7 750.0,2405.3 744.5,2409.5C739.0,2413.7 742.2,2416.3 732.5,2422.5C722.8,2428.7 703.7,2439.7 686.5,2446.5C669.3,2453.3 651.8,2460.7 629.5,2463.5C607.2,2466.3 568.7,2465.0 552.5,2463.5C536.3,2462.0 538.7,2456.0 532.5,2454.5C526.3,2453.0 515.5,2454.5 515.5,2454.5C515.5,2454.5 513.2,2449.2 506.5,2446.5C499.8,2443.8 487.7,2444.0 475.5,2438.5C463.3,2433.0 442.3,2419.8 433.5,2413.5C424.7,2407.2 428.7,2405.5 422.5,2400.5C416.3,2395.5 412.5,2398.3 396.5,2383.5C380.5,2368.7 356.0,2339.7 326.5,2311.5C297.0,2283.3 268.3,2261.8 219.5,2214.5C170.7,2167.2 64.7,2060.2 33.5,2027.5C2.3,1994.8 36.3,2025.8 32.5,2018.5C28.7,2011.2 14.7,1992.2 10.5,1983.5C6.3,1974.8 7.5,1966.5 7.5,1966.5C7.5,1966.5 0.5,1963.5 0.5,1963.5C0.5,1963.5 0.5,1729.5 0.5,1729.5C0.5,1729.5 9.5,1724.5 9.5,1724.5C9.5,1724.5 6.8,1719.5 11.5,1713.5C16.2,1707.5 29.2,1695.0 37.5,1688.5C45.8,1682.0 26.0,1677.0 61.5,1674.5C97.0,1672.0 215.8,1672.2 250.5,1673.5C285.2,1674.8 262.2,1676.8 269.5,1682.5C276.8,1688.2 287.5,1698.0 294.5,1707.5C301.5,1717.0 308.7,1706.0 311.5,1739.5C314.3,1773.0 311.5,1908.5 311.5,1908.5C311.5,1908.5 337.2,1923.7 348.5,1928.5C359.8,1933.3 373.0,1934.7 379.5,1937.5C386.0,1940.3 387.5,1945.5 387.5,1945.5C387.5,1945.5 397.5,1945.5 397.5,1945.5C397.5,1945.5 400.3,1950.7 406.5,1953.5C412.7,1956.3 421.7,1956.0 434.5,1962.5C447.3,1969.0 465.5,1979.2 483.5,1992.5C501.5,2005.8 524.0,2022.5 542.5,2042.5C561.0,2062.5 594.5,2112.5 594.5,2112.5C594.5,2112.5 607.5,2109.5 607.5,2109.5C607.5,2109.5 605.0,2107.3 609.5,2097.5C614.0,2087.7 618.3,2073.0 634.5,2050.5C650.7,2028.0 646.7,2025.0 706.5,1962.5C766.3,1900.0 993.5,1675.5 993.5,1675.5C993.5,1675.5 992.5,1665.5 992.5,1665.5C992.5,1665.5 1062.0,1661.8 985.5,1661.5C909.0,1661.2 612.3,1664.7 533.5,1663.5C454.7,1662.3 519.8,1656.0 512.5,1654.5C505.2,1653.0 499.0,1657.2 489.5,1654.5C480.0,1651.8 463.2,1641.2 455.5,1638.5C447.8,1635.8 443.5,1638.5 443.5,1638.5C443.5,1638.5 437.5,1630.5 437.5,1630.5C437.5,1630.5 427.5,1630.5 427.5,1630.5C427.5,1630.5 421.5,1622.5 421.5,1622.5C421.5,1622.5 415.5,1623.8 411.5,1621.5C407.5,1619.2 401.5,1611.0 397.5,1608.5C393.5,1606.0 438.3,1653.3 387.5,1606.5C336.7,1559.7 143.5,1377.3 92.5,1327.5C41.5,1277.7 85.8,1313.3 81.5,1307.5C77.2,1301.7 73.2,1305.0 66.5,1292.5C59.8,1280.0 45.7,1247.2 41.5,1232.5C37.3,1217.8 42.7,1213.5 41.5,1204.5C40.3,1195.5 35.5,1226.3 34.5,1178.5C33.5,1130.7 33.0,968.0 35.5,917.5C38.0,867.0 41.5,888.2 49.5,875.5C57.5,862.8 76.3,847.3 83.5,841.5C90.7,835.7 89.8,841.8 92.5,840.5C95.2,839.2 99.5,833.5 99.5,833.5C99.5,833.5 122.5,833.5 122.5,833.5C122.5,833.5 123.5,832.5 123.5,832.5ZM2979.5,832.5C2979.5,832.5 3149.7,831.8 3187.5,833.5C3225.3,835.2 3198.0,835.5 3206.5,842.5C3215.0,849.5 3231.8,867.2 3238.5,875.5C3245.2,883.8 3244.3,875.5 3246.5,892.5C3248.7,909.5 3251.3,921.3 3251.5,977.5C3251.7,1033.7 3249.7,1184.7 3247.5,1229.5C3245.3,1274.3 3240.0,1241.3 3238.5,1246.5C3237.0,1251.7 3238.5,1260.5 3238.5,1260.5C3238.5,1260.5 3234.2,1262.2 3231.5,1267.5C3228.8,1272.8 3228.0,1282.8 3222.5,1292.5C3217.0,1302.2 3252.2,1273.3 3198.5,1325.5C3144.8,1377.7 2951.8,1558.5 2900.5,1605.5C2849.2,1652.5 2897.0,1603.5 2890.5,1607.5C2884.0,1611.5 2872.5,1623.2 2861.5,1629.5C2850.5,1635.8 2833.2,1642.7 2824.5,1645.5C2815.8,1648.3 2813.7,1645.0 2809.5,1646.5C2805.3,1648.0 2805.2,1653.2 2799.5,1654.5C2793.8,1655.8 2782.8,1653.0 2775.5,1654.5C2768.2,1656.0 2835.2,1662.3 2755.5,1663.5C2675.8,1664.7 2375.3,1661.2 2297.5,1661.5C2219.7,1661.8 2288.5,1665.5 2288.5,1665.5C2288.5,1665.5 2287.5,1676.5 2287.5,1676.5C2287.5,1676.5 2429.8,1817.5 2485.5,1874.5C2541.2,1931.5 2593.2,1986.2 2621.5,2018.5C2649.8,2050.8 2646.8,2054.0 2655.5,2068.5C2664.2,2083.0 2668.8,2098.0 2673.5,2105.5C2678.2,2113.0 2683.5,2113.5 2683.5,2113.5C2683.5,2113.5 2693.0,2106.0 2695.5,2102.5C2698.0,2099.0 2692.7,2101.2 2698.5,2092.5C2704.3,2083.8 2714.3,2066.8 2730.5,2050.5C2746.7,2034.2 2783.0,2004.2 2795.5,1994.5C2808.0,1984.8 2796.0,1998.0 2805.5,1992.5C2815.0,1987.0 2839.3,1968.2 2852.5,1961.5C2865.7,1954.8 2863.8,1961.2 2884.5,1952.5C2905.2,1943.8 2976.5,1909.5 2976.5,1909.5C2976.5,1909.5 2969.8,1784.8 2971.5,1752.5C2973.2,1720.2 2978.5,1727.3 2986.5,1715.5C2994.5,1703.7 3011.7,1688.5 3019.5,1681.5C3027.3,1674.5 3000.0,1674.8 3033.5,1673.5C3067.0,1672.2 3182.5,1669.5 3220.5,1673.5C3258.5,1677.5 3251.8,1689.2 3261.5,1697.5C3271.2,1705.8 3275.5,1717.3 3278.5,1723.5C3281.5,1729.7 3279.5,1734.5 3279.5,1734.5C3279.5,1734.5 3287.5,1738.5 3287.5,1738.5C3287.5,1738.5 3287.5,1950.5 3287.5,1950.5C3287.5,1950.5 3279.5,1956.5 3279.5,1956.5C3279.5,1956.5 3281.5,1966.0 3278.5,1975.5C3275.5,1985.0 3266.7,2004.8 3261.5,2013.5C3256.3,2022.2 3251.3,2022.2 3247.5,2027.5C3243.7,2032.8 3271.5,2012.8 3238.5,2045.5C3205.5,2078.2 3099.3,2175.2 3049.5,2223.5C2999.7,2271.8 2965.8,2310.3 2939.5,2335.5C2913.2,2360.7 2903.2,2364.0 2891.5,2374.5C2879.8,2385.0 2876.2,2393.0 2869.5,2398.5C2862.8,2404.0 2856.8,2403.7 2851.5,2407.5C2846.2,2411.3 2848.0,2415.0 2837.5,2421.5C2827.0,2428.0 2798.3,2442.3 2788.5,2446.5C2778.7,2450.7 2782.0,2445.2 2778.5,2446.5C2775.0,2447.8 2772.3,2453.2 2767.5,2454.5C2762.7,2455.8 2754.7,2453.2 2749.5,2454.5C2744.3,2455.8 2754.0,2461.0 2736.5,2462.5C2719.0,2464.0 2662.7,2464.8 2644.5,2463.5C2626.3,2462.2 2633.3,2456.0 2627.5,2454.5C2621.7,2453.0 2614.5,2455.8 2609.5,2454.5C2604.5,2453.2 2601.2,2447.8 2597.5,2446.5C2593.8,2445.2 2592.8,2449.0 2587.5,2446.5C2582.2,2444.0 2570.8,2434.2 2565.5,2431.5C2560.2,2428.8 2559.5,2432.8 2555.5,2430.5C2551.5,2428.2 2545.5,2420.2 2541.5,2417.5C2537.5,2414.8 2536.8,2418.8 2531.5,2414.5C2526.2,2410.2 2516.3,2397.0 2509.5,2391.5C2502.7,2386.0 2498.7,2388.5 2490.5,2381.5C2482.3,2374.5 2469.5,2357.3 2460.5,2349.5C2451.5,2341.7 2448.5,2345.0 2436.5,2334.5C2424.5,2324.0 2400.7,2297.2 2388.5,2286.5C2376.3,2275.8 2374.2,2280.0 2363.5,2270.5C2352.8,2261.0 2338.0,2241.7 2324.5,2229.5C2311.0,2217.3 2296.5,2210.3 2282.5,2197.5C2268.5,2184.7 2254.8,2165.5 2240.5,2152.5C2226.2,2139.5 2211.7,2133.2 2196.5,2119.5C2181.3,2105.8 2162.8,2082.5 2149.5,2070.5C2136.2,2058.5 2132.3,2061.3 2116.5,2047.5C2100.7,2033.7 2068.2,2001.5 2054.5,1987.5C2040.8,1973.5 2038.0,1969.3 2034.5,1963.5C2031.0,1957.7 2035.0,1956.0 2033.5,1952.5C2032.0,1949.0 2027.0,2007.3 2025.5,1942.5C2024.0,1877.7 2023.2,1629.7 2024.5,1563.5C2025.8,1497.3 2032.0,1551.5 2033.5,1545.5C2035.0,1539.5 2032.2,1532.3 2033.5,1527.5C2034.8,1522.7 2038.8,1523.7 2041.5,1516.5C2044.2,1509.3 2042.8,1499.3 2049.5,1484.5C2056.2,1469.7 2073.5,1439.5 2081.5,1427.5C2089.5,1415.5 2093.5,1417.8 2097.5,1412.5C2101.5,1407.2 2099.8,1402.7 2105.5,1395.5C2111.2,1388.3 2115.2,1381.8 2131.5,1369.5C2147.8,1357.2 2184.5,1332.2 2203.5,1321.5C2222.5,1310.8 2236.0,1308.2 2245.5,1305.5C2255.0,1302.8 2256.2,1306.8 2260.5,1305.5C2264.8,1304.2 2264.0,1299.5 2271.5,1297.5C2279.0,1295.5 2259.3,1293.5 2305.5,1293.5C2351.7,1293.5 2496.0,1292.8 2548.5,1297.5C2601.0,1302.2 2601.8,1313.5 2620.5,1321.5C2639.2,1329.5 2645.3,1334.3 2660.5,1345.5C2675.7,1356.7 2711.5,1388.5 2711.5,1388.5C2711.5,1388.5 2721.5,1388.5 2721.5,1388.5C2721.5,1388.5 2724.5,1393.3 2728.5,1382.5C2732.5,1371.7 2738.8,1339.5 2745.5,1323.5C2752.2,1307.5 2764.3,1294.8 2768.5,1286.5C2772.7,1278.2 2770.5,1273.5 2770.5,1273.5C2770.5,1273.5 2781.5,1267.0 2785.5,1262.5C2789.5,1258.0 2784.8,1256.3 2794.5,1246.5C2804.2,1236.7 2828.7,1214.8 2843.5,1203.5C2858.3,1192.2 2875.3,1182.8 2883.5,1178.5C2891.7,1174.2 2885.7,1181.5 2892.5,1177.5C2899.3,1173.5 2917.8,1158.5 2924.5,1154.5C2931.2,1150.5 2925.3,1157.8 2932.5,1153.5C2939.7,1149.2 2967.5,1128.5 2967.5,1128.5C2967.5,1128.5 2963.5,1118.5 2963.5,1118.5C2963.5,1118.5 2956.5,1121.7 2949.5,1118.5C2942.5,1115.3 2927.5,1105.5 2921.5,1099.5C2915.5,1093.5 2916.2,1086.3 2913.5,1082.5C2910.8,1078.7 2905.5,1076.5 2905.5,1076.5C2905.5,1076.5 2906.8,1069.0 2905.5,1065.5C2904.2,1062.0 2898.8,1083.0 2897.5,1055.5C2896.2,1028.0 2894.7,932.2 2897.5,900.5C2900.3,868.8 2907.5,875.2 2914.5,865.5C2921.5,855.8 2932.3,847.8 2939.5,842.5C2946.7,837.2 2951.0,835.0 2957.5,833.5C2964.0,832.0 2978.5,833.5 2978.5,833.5C2978.5,833.5 2979.5,832.5 2979.5,832.5Z"/>
</svg>
